<svg width="197" height="60" viewBox="0 0 197 60" fill="none" xmlns="http://www.w3.org/2000/svg">
<g clip-path="url(#clip0_1_141)">
<path d="M1.6145 47.8778V8.57507L26.8325 17.1854V56.4882L1.6145 47.8778Z" stroke="black" stroke-width="3"/>
<path d="M15.1704 41.1004V1.79761L40.3884 10.408V49.7107L15.1704 41.1004Z" stroke="black" stroke-width="3"/>
<path d="M63.6435 26V7.09091H71.2145C72.6056 7.09091 73.7659 7.29711 74.6953 7.70952C75.6248 8.12192 76.3234 8.69437 76.7912 9.42685C77.259 10.1532 77.4929 10.9903 77.4929 11.9382C77.4929 12.6768 77.3452 13.3262 77.0497 13.8864C76.7543 14.4403 76.348 14.8958 75.831 15.2528C75.3201 15.6037 74.7353 15.853 74.0767 16.0007V16.1854C74.7969 16.2161 75.4709 16.4193 76.0987 16.7947C76.7327 17.1702 77.2467 17.6965 77.6406 18.3736C78.0346 19.0445 78.2315 19.8447 78.2315 20.7741C78.2315 21.7775 77.9822 22.6731 77.4837 23.4609C76.9912 24.2427 76.2618 24.8613 75.2955 25.3168C74.3291 25.7723 73.138 26 71.7223 26H63.6435ZM67.6413 22.7315H70.9006C72.0147 22.7315 72.8272 22.5192 73.3381 22.0945C73.849 21.6636 74.1044 21.0911 74.1044 20.3771C74.1044 19.8539 73.9782 19.3923 73.7259 18.9922C73.4735 18.5921 73.1134 18.2782 72.6456 18.0504C72.1839 17.8227 71.633 17.7088 70.9929 17.7088H67.6413V22.7315ZM67.6413 15.0036H70.6051C71.1529 15.0036 71.6392 14.9081 72.0639 14.7173C72.4948 14.5204 72.8333 14.2434 73.0795 13.8864C73.3319 13.5294 73.4581 13.1016 73.4581 12.603C73.4581 11.9197 73.215 11.3688 72.7287 10.9503C72.2486 10.5317 71.5653 10.3224 70.679 10.3224H67.6413V15.0036ZM80.7591 26V11.8182H84.6923V26H80.7591ZM82.7349 9.99006C82.1502 9.99006 81.6485 9.79616 81.2299 9.40838C80.8175 9.01444 80.6113 8.54356 80.6113 7.99574C80.6113 7.45407 80.8175 6.98935 81.2299 6.60156C81.6485 6.20762 82.1502 6.01065 82.7349 6.01065C83.3197 6.01065 83.8182 6.20762 84.2306 6.60156C84.6492 6.98935 84.8585 7.45407 84.8585 7.99574C84.8585 8.54356 84.6492 9.01444 84.2306 9.40838C83.8182 9.79616 83.3197 9.99006 82.7349 9.99006ZM87.9169 26V7.09091H91.8501V14.2003H91.9702C92.1425 13.8187 92.3918 13.4309 92.718 13.0369C93.0504 12.6368 93.4813 12.3045 94.0107 12.0398C94.5462 11.7689 95.2109 11.6335 96.005 11.6335C97.0391 11.6335 97.9931 11.9044 98.8672 12.446C99.7412 12.9815 100.44 13.791 100.963 14.8743C101.486 15.9515 101.748 17.3026 101.748 18.9276C101.748 20.5095 101.492 21.8452 100.982 22.9347C100.477 24.018 99.7874 24.8397 98.9134 25.3999C98.0455 25.9538 97.0729 26.2308 95.9957 26.2308C95.2325 26.2308 94.5831 26.1046 94.0476 25.8523C93.5182 25.5999 93.0843 25.2829 92.7457 24.9013C92.4072 24.5135 92.1487 24.1226 91.9702 23.7287H91.7947V26H87.9169ZM91.767 18.9091C91.767 19.7524 91.884 20.4879 92.1179 21.1158C92.3518 21.7436 92.6903 22.233 93.1335 22.5838C93.5767 22.9285 94.1153 23.1009 94.7493 23.1009C95.3894 23.1009 95.9311 22.9254 96.3743 22.5746C96.8175 22.2176 97.1529 21.7251 97.3807 21.0973C97.6146 20.4633 97.7315 19.7339 97.7315 18.9091C97.7315 18.0904 97.6177 17.3703 97.3899 16.7486C97.1622 16.1269 96.8267 15.6406 96.3835 15.2898C95.9403 14.9389 95.3956 14.7635 94.7493 14.7635C94.1091 14.7635 93.5675 14.9328 93.1243 15.2713C92.6873 15.6098 92.3518 16.09 92.1179 16.7116C91.884 17.3333 91.767 18.0658 91.767 18.9091ZM108.306 7.09091V26H104.372V7.09091H108.306ZM111.456 26V11.8182H115.39V26H111.456ZM113.432 9.99006C112.847 9.99006 112.346 9.79616 111.927 9.40838C111.515 9.01444 111.309 8.54356 111.309 7.99574C111.309 7.45407 111.515 6.98935 111.927 6.60156C112.346 6.20762 112.847 6.01065 113.432 6.01065C114.017 6.01065 114.516 6.20762 114.928 6.60156C115.346 6.98935 115.556 7.45407 115.556 7.99574C115.556 8.54356 115.346 9.01444 114.928 9.40838C114.516 9.79616 114.017 9.99006 113.432 9.99006ZM124.948 26.277C123.514 26.277 122.273 25.9723 121.227 25.3629C120.187 24.7474 119.384 23.8918 118.817 22.7962C118.251 21.6944 117.968 20.4171 117.968 18.9645C117.968 17.4995 118.251 16.2192 118.817 15.1236C119.384 14.0218 120.187 13.1662 121.227 12.5568C122.273 11.9413 123.514 11.6335 124.948 11.6335C126.382 11.6335 127.619 11.9413 128.66 12.5568C129.706 13.1662 130.512 14.0218 131.079 15.1236C131.645 16.2192 131.928 17.4995 131.928 18.9645C131.928 20.4171 131.645 21.6944 131.079 22.7962C130.512 23.8918 129.706 24.7474 128.66 25.3629C127.619 25.9723 126.382 26.277 124.948 26.277ZM124.966 23.2301C125.619 23.2301 126.164 23.0455 126.601 22.6761C127.038 22.3007 127.367 21.7898 127.589 21.1435C127.816 20.4972 127.93 19.7616 127.93 18.9368C127.93 18.112 127.816 17.3764 127.589 16.7301C127.367 16.0838 127.038 15.5729 126.601 15.1974C126.164 14.822 125.619 14.6342 124.966 14.6342C124.308 14.6342 123.754 14.822 123.305 15.1974C122.861 15.5729 122.526 16.0838 122.298 16.7301C122.077 17.3764 121.966 18.112 121.966 18.9368C121.966 19.7616 122.077 20.4972 122.298 21.1435C122.526 21.7898 122.861 22.3007 123.305 22.6761C123.754 23.0455 124.308 23.2301 124.966 23.2301ZM142.029 11.8182V14.7727H133.488V11.8182H142.029ZM135.427 8.42045H139.361V21.642C139.361 22.0052 139.416 22.2884 139.527 22.4915C139.638 22.6884 139.791 22.8269 139.988 22.907C140.192 22.987 140.425 23.027 140.69 23.027C140.875 23.027 141.059 23.0116 141.244 22.9808C141.429 22.9439 141.57 22.9162 141.669 22.8977L142.287 25.8246C142.09 25.8861 141.814 25.9569 141.456 26.0369C141.099 26.1231 140.666 26.1754 140.155 26.1939C139.207 26.2308 138.376 26.1046 137.662 25.8153C136.954 25.526 136.403 25.0767 136.009 24.4673C135.615 23.858 135.421 23.0885 135.427 22.1591V8.42045ZM150.902 26.277C149.443 26.277 148.187 25.9815 147.135 25.3906C146.088 24.7936 145.282 23.9503 144.716 22.8608C144.149 21.7652 143.866 20.4695 143.866 18.9737C143.866 17.5149 144.149 16.2346 144.716 15.1328C145.282 14.031 146.079 13.1723 147.107 12.5568C148.141 11.9413 149.354 11.6335 150.745 11.6335C151.68 11.6335 152.551 11.7843 153.358 12.0859C154.17 12.3814 154.878 12.8277 155.481 13.4247C156.091 14.0218 156.565 14.7727 156.903 15.6776C157.242 16.5762 157.411 17.6288 157.411 18.8352V19.9155H145.436V17.478H153.709C153.709 16.9117 153.586 16.41 153.339 15.973C153.093 15.536 152.751 15.1944 152.314 14.9482C151.884 14.6958 151.382 14.5696 150.809 14.5696C150.212 14.5696 149.683 14.7081 149.221 14.9851C148.766 15.2559 148.409 15.6222 148.15 16.0838C147.892 16.5393 147.76 17.0471 147.753 17.6072V19.9247C147.753 20.6264 147.883 21.2327 148.141 21.7436C148.406 22.2545 148.778 22.6484 149.258 22.9254C149.738 23.2024 150.308 23.3409 150.966 23.3409C151.403 23.3409 151.804 23.2794 152.167 23.1562C152.53 23.0331 152.841 22.8485 153.099 22.6023C153.358 22.3561 153.555 22.0545 153.69 21.6974L157.328 21.9375C157.143 22.8116 156.765 23.5748 156.192 24.2273C155.626 24.8736 154.894 25.3783 153.995 25.7415C153.102 26.0985 152.071 26.277 150.902 26.277ZM166.385 26.277C164.933 26.277 163.683 25.9692 162.637 25.3537C161.597 24.732 160.796 23.8703 160.236 22.7685C159.682 21.6667 159.405 20.3987 159.405 18.9645C159.405 17.5118 159.685 16.2377 160.246 15.142C160.812 14.0402 161.615 13.1816 162.655 12.5661C163.696 11.9444 164.933 11.6335 166.367 11.6335C167.604 11.6335 168.688 11.8582 169.617 12.3075C170.546 12.7569 171.282 13.3878 171.824 14.2003C172.365 15.0128 172.664 15.9669 172.719 17.0625H169.008C168.903 16.3546 168.626 15.7853 168.177 15.3544C167.733 14.9174 167.152 14.6989 166.432 14.6989C165.822 14.6989 165.29 14.8651 164.834 15.1974C164.385 15.5237 164.034 16.0007 163.782 16.6286C163.529 17.2564 163.403 18.0166 163.403 18.9091C163.403 19.8139 163.526 20.5833 163.773 21.2173C164.025 21.8513 164.379 22.3345 164.834 22.6669C165.29 22.9993 165.822 23.1655 166.432 23.1655C166.881 23.1655 167.284 23.0732 167.641 22.8885C168.004 22.7038 168.303 22.4361 168.537 22.0852C168.777 21.7282 168.934 21.3004 169.008 20.8018H172.719C172.658 21.8852 172.362 22.8393 171.833 23.6641C171.31 24.4827 170.586 25.1229 169.663 25.5845C168.74 26.0462 167.647 26.277 166.385 26.277ZM179.282 26.2678C178.377 26.2678 177.57 26.1108 176.863 25.7969C176.155 25.4768 175.595 25.0059 175.182 24.3842C174.776 23.7564 174.573 22.9747 174.573 22.0391C174.573 21.2512 174.717 20.5895 175.007 20.054C175.296 19.5185 175.69 19.0876 176.189 18.7614C176.687 18.4351 177.253 18.1889 177.887 18.0227C178.528 17.8565 179.199 17.7396 179.9 17.6719C180.725 17.5857 181.39 17.5057 181.895 17.4318C182.399 17.3518 182.766 17.2348 182.993 17.081C183.221 16.9271 183.335 16.6993 183.335 16.3977V16.3423C183.335 15.7576 183.15 15.3052 182.781 14.9851C182.418 14.665 181.901 14.505 181.23 14.505C180.522 14.505 179.959 14.6619 179.54 14.9759C179.122 15.2836 178.845 15.6714 178.709 16.1392L175.071 15.8438C175.256 14.982 175.619 14.2372 176.161 13.6094C176.703 12.9754 177.401 12.4891 178.257 12.1506C179.118 11.8059 180.116 11.6335 181.248 11.6335C182.036 11.6335 182.79 11.7259 183.51 11.9105C184.237 12.0952 184.88 12.3814 185.44 12.7692C186.006 13.157 186.453 13.6555 186.779 14.2649C187.105 14.8681 187.268 15.5914 187.268 16.4347V26H183.538V24.0334H183.427C183.199 24.4766 182.895 24.8674 182.513 25.206C182.132 25.5384 181.673 25.8 181.137 25.9908C180.602 26.1754 179.983 26.2678 179.282 26.2678ZM180.408 23.5533C180.987 23.5533 181.498 23.4394 181.941 23.2116C182.384 22.9777 182.732 22.6638 182.984 22.2699C183.236 21.8759 183.363 21.4297 183.363 20.9311V19.4261C183.239 19.5062 183.07 19.58 182.855 19.6477C182.645 19.7093 182.408 19.7678 182.144 19.8232C181.879 19.8724 181.614 19.9186 181.35 19.9616C181.085 19.9986 180.845 20.0324 180.63 20.0632C180.168 20.1309 179.765 20.2386 179.42 20.3864C179.075 20.5341 178.808 20.7341 178.617 20.9865C178.426 21.2327 178.331 21.5405 178.331 21.9098C178.331 22.4453 178.525 22.8546 178.912 23.1378C179.306 23.4148 179.805 23.5533 180.408 23.5533Z" fill="black"/>
<path d="M62.9233 37.3871V34.0909H78.4531V37.3871H72.6641V53H68.7124V37.3871H62.9233ZM79.4641 53V38.8182H83.2773V41.2926H83.4251C83.6836 40.4124 84.1175 39.7476 84.7269 39.2983C85.3363 38.8428 86.038 38.6151 86.832 38.6151C87.029 38.6151 87.2414 38.6274 87.4691 38.652C87.6969 38.6766 87.8969 38.7105 88.0692 38.7536V42.2436C87.8846 42.1882 87.6291 42.139 87.3029 42.0959C86.9767 42.0528 86.6781 42.0312 86.4073 42.0312C85.8287 42.0312 85.3117 42.1574 84.8562 42.4098C84.4068 42.656 84.0498 43.0007 83.7852 43.4439C83.5266 43.8871 83.3974 44.398 83.3974 44.9766V53H79.4641ZM90.1028 53V38.8182H94.036V53H90.1028ZM92.0787 36.9901C91.4939 36.9901 90.9922 36.7962 90.5737 36.4084C90.1613 36.0144 89.9551 35.5436 89.9551 34.9957C89.9551 34.4541 90.1613 33.9893 90.5737 33.6016C90.9922 33.2076 91.4939 33.0107 92.0787 33.0107C92.6634 33.0107 93.162 33.2076 93.5744 33.6016C93.993 33.9893 94.2022 34.4541 94.2022 34.9957C94.2022 35.5436 93.993 36.0144 93.5744 36.4084C93.162 36.7962 92.6634 36.9901 92.0787 36.9901ZM97.1868 58.3182V38.8182H101.065V41.2003H101.24C101.412 40.8187 101.662 40.4309 101.988 40.0369C102.32 39.6368 102.751 39.3045 103.281 39.0398C103.816 38.7689 104.481 38.6335 105.275 38.6335C106.309 38.6335 107.263 38.9044 108.137 39.446C109.011 39.9815 109.71 40.791 110.233 41.8743C110.756 42.9515 111.018 44.3026 111.018 45.9276C111.018 47.5095 110.762 48.8452 110.251 49.9347C109.747 51.018 109.057 51.8397 108.183 52.3999C107.315 52.9538 106.343 53.2308 105.266 53.2308C104.502 53.2308 103.853 53.1046 103.317 52.8523C102.788 52.5999 102.354 52.2829 102.016 51.9013C101.677 51.5135 101.419 51.1226 101.24 50.7287H101.12V58.3182H97.1868ZM101.037 45.9091C101.037 46.7524 101.154 47.4879 101.388 48.1158C101.622 48.7436 101.96 49.233 102.403 49.5838C102.847 49.9285 103.385 50.1009 104.019 50.1009C104.659 50.1009 105.201 49.9254 105.644 49.5746C106.087 49.2176 106.423 48.7251 106.651 48.0973C106.884 47.4633 107.001 46.7339 107.001 45.9091C107.001 45.0904 106.888 44.3703 106.66 43.7486C106.432 43.1269 106.097 42.6406 105.653 42.2898C105.21 41.9389 104.665 41.7635 104.019 41.7635C103.379 41.7635 102.837 41.9328 102.394 42.2713C101.957 42.6098 101.622 43.09 101.388 43.7116C101.154 44.3333 101.037 45.0658 101.037 45.9091ZM117.573 34.0909V53H113.64V34.0909H117.573ZM127.187 53.277C125.728 53.277 124.472 52.9815 123.42 52.3906C122.374 51.7936 121.567 50.9503 121.001 49.8608C120.435 48.7652 120.151 47.4695 120.151 45.9737C120.151 44.5149 120.435 43.2346 121.001 42.1328C121.567 41.031 122.364 40.1723 123.392 39.5568C124.426 38.9413 125.639 38.6335 127.03 38.6335C127.966 38.6335 128.837 38.7843 129.643 39.0859C130.455 39.3814 131.163 39.8277 131.767 40.4247C132.376 41.0218 132.85 41.7727 133.188 42.6776C133.527 43.5762 133.696 44.6288 133.696 45.8352V46.9155H121.721V44.478H129.994C129.994 43.9117 129.871 43.41 129.624 42.973C129.378 42.536 129.037 42.1944 128.6 41.9482C128.169 41.6958 127.667 41.5696 127.095 41.5696C126.498 41.5696 125.968 41.7081 125.507 41.9851C125.051 42.2559 124.694 42.6222 124.436 43.0838C124.177 43.5393 124.045 44.0471 124.039 44.6072V46.9247C124.039 47.6264 124.168 48.2327 124.426 48.7436C124.691 49.2545 125.063 49.6484 125.544 49.9254C126.024 50.2024 126.593 50.3409 127.252 50.3409C127.689 50.3409 128.089 50.2794 128.452 50.1562C128.815 50.0331 129.126 49.8485 129.384 49.6023C129.643 49.3561 129.84 49.0545 129.975 48.6974L133.613 48.9375C133.428 49.8116 133.05 50.5748 132.477 51.2273C131.911 51.8736 131.179 52.3783 130.28 52.7415C129.387 53.0985 128.356 53.277 127.187 53.277Z" fill="#2F80ED"/>
</g>
<defs>
<clipPath id="clip0_1_141">
<rect width="196.286" height="60" fill="white"/>
</clipPath>
</defs>
</svg>
