<svg width="58" height="80" viewBox="0 0 58 80" fill="none" xmlns="http://www.w3.org/2000/svg">
<path d="M0.331055 65.1564V56.471H3.81015C4.44939 56.471 4.98257 56.5658 5.40968 56.7552C5.83679 56.9446 6.15783 57.2075 6.37279 57.544C6.58776 57.8776 6.69525 58.2621 6.69525 58.6975C6.69525 59.0368 6.62736 59.3351 6.49159 59.5923C6.35582 59.8468 6.16914 60.056 5.93154 60.22C5.69678 60.3811 5.42807 60.4956 5.12541 60.5635V60.6483C5.45635 60.6625 5.76607 60.7558 6.05458 60.9282C6.34592 61.1007 6.58211 61.3424 6.76313 61.6534C6.94416 61.9616 7.03467 62.3291 7.03467 62.756C7.03467 63.2169 6.92012 63.6283 6.691 63.9901C6.46472 64.3492 6.12954 64.6333 5.68546 64.8426C5.24138 65.0518 4.69406 65.1564 4.0435 65.1564H0.331055ZM2.16818 63.6551H3.66589C4.17786 63.6551 4.55122 63.5576 4.78599 63.3625C5.02076 63.1646 5.13814 62.9016 5.13814 62.5737C5.13814 62.3334 5.08016 62.1213 4.96419 61.9375C4.84822 61.7538 4.68275 61.6096 4.46778 61.505C4.25564 61.4004 4.00249 61.3481 3.70832 61.3481H2.16818V63.6551ZM2.16818 60.1055H3.53012C3.78186 60.1055 4.00532 60.0617 4.20048 59.974C4.39848 59.8835 4.55405 59.7563 4.66719 59.5923C4.78316 59.4284 4.84115 59.2319 4.84115 59.0029C4.84115 58.689 4.72942 58.436 4.50597 58.2437C4.28534 58.0515 3.97137 57.9554 3.56406 57.9554H2.16818V60.1055Z" fill="black"/>
<path d="M8.19614 65.1564V58.6424H10.0036V65.1564H8.19614ZM9.10409 57.8027C8.83538 57.8027 8.60486 57.7136 8.41252 57.5355C8.22301 57.3546 8.12825 57.1383 8.12825 56.8866C8.12825 56.6378 8.22301 56.4244 8.41252 56.2463C8.60486 56.0653 8.83538 55.9749 9.10409 55.9749C9.3728 55.9749 9.60192 56.0653 9.79143 56.2463C9.98377 56.4244 10.0799 56.6378 10.0799 56.8866C10.0799 57.1383 9.98377 57.3546 9.79143 57.5355C9.60192 57.7136 9.3728 57.8027 9.10409 57.8027Z" fill="black"/>
<path d="M11.4854 65.1564V56.471H13.2928V59.7365H13.3479C13.4271 59.5612 13.5417 59.3831 13.6916 59.2022C13.8444 59.0184 14.0424 58.8657 14.2856 58.7442C14.5317 58.6198 14.8372 58.5576 15.202 58.5576C15.6772 58.5576 16.1157 58.682 16.5173 58.9308C16.919 59.1767 17.24 59.5485 17.4804 60.0461C17.7209 60.5409 17.8411 61.1615 17.8411 61.9079C17.8411 62.6345 17.7237 63.248 17.4889 63.7484C17.257 64.246 16.9402 64.6234 16.5385 64.8807C16.1397 65.1352 15.6928 65.2624 15.1978 65.2624C14.8471 65.2624 14.5487 65.2045 14.3026 65.0885C14.0593 64.9726 13.8599 64.827 13.7043 64.6517C13.5488 64.4736 13.43 64.2941 13.3479 64.1131H13.2673V65.1564H11.4854ZM13.2546 61.8994C13.2546 62.2867 13.3083 62.6246 13.4158 62.913C13.5233 63.2013 13.6789 63.4261 13.8825 63.5873C14.0862 63.7456 14.3337 63.8247 14.625 63.8247C14.9192 63.8247 15.1681 63.7442 15.3718 63.583C15.5754 63.419 15.7296 63.1929 15.8342 62.9045C15.9417 62.6133 15.9955 62.2782 15.9955 61.8994C15.9955 61.5234 15.9431 61.1926 15.8385 60.907C15.7338 60.6215 15.5797 60.3981 15.376 60.237C15.1724 60.0758 14.922 59.9952 14.625 59.9952C14.3309 59.9952 14.082 60.073 13.8783 60.2285C13.6775 60.384 13.5233 60.6045 13.4158 60.89C13.3083 61.1756 13.2546 61.512 13.2546 61.8994Z" fill="black"/>
<path d="M20.8545 56.471V65.1564H19.0471V56.471H20.8545Z" fill="black"/>
<path d="M22.3024 65.1564V58.6424H24.1098V65.1564H22.3024ZM23.2103 57.8027C22.9416 57.8027 22.7111 57.7136 22.5187 57.5355C22.3292 57.3546 22.2345 57.1383 22.2345 56.8866C22.2345 56.6378 22.3292 56.4244 22.5187 56.2463C22.7111 56.0653 22.9416 55.9749 23.2103 55.9749C23.479 55.9749 23.7081 56.0653 23.8977 56.2463C24.09 56.4244 24.1862 56.6378 24.1862 56.8866C24.1862 57.1383 24.09 57.3546 23.8977 57.5355C23.7081 57.7136 23.479 57.8027 23.2103 57.8027Z" fill="black"/>
<path d="M28.5021 65.2836C27.8431 65.2836 27.2732 65.1437 26.7923 64.8638C26.3143 64.581 25.9452 64.1881 25.6849 63.6848C25.4247 63.1787 25.2946 62.5921 25.2946 61.9248C25.2946 61.2519 25.4247 60.6639 25.6849 60.1606C25.9452 59.6545 26.3143 59.2615 26.7923 58.9816C27.2732 58.6989 27.8431 58.5576 28.5021 58.5576C29.1612 58.5576 29.7297 58.6989 30.2078 58.9816C30.6886 59.2615 31.0591 59.6545 31.3194 60.1606C31.5796 60.6639 31.7097 61.2519 31.7097 61.9248C31.7097 62.5921 31.5796 63.1787 31.3194 63.6848C31.0591 64.1881 30.6886 64.581 30.2078 64.8638C29.7297 65.1437 29.1612 65.2836 28.5021 65.2836ZM28.5106 63.8841C28.8105 63.8841 29.0608 63.7993 29.2616 63.6297C29.4624 63.4572 29.6138 63.2225 29.7156 62.9257C29.8202 62.6288 29.8726 62.291 29.8726 61.9121C29.8726 61.5333 29.8202 61.1954 29.7156 60.8985C29.6138 60.6017 29.4624 60.367 29.2616 60.1945C29.0608 60.0221 28.8105 59.9358 28.5106 59.9358C28.208 59.9358 27.9534 60.0221 27.7469 60.1945C27.5433 60.367 27.3891 60.6017 27.2845 60.8985C27.1826 61.1954 27.1317 61.5333 27.1317 61.9121C27.1317 62.291 27.1826 62.6288 27.2845 62.9257C27.3891 63.2225 27.5433 63.4572 27.7469 63.6297C27.9534 63.7993 28.208 63.8841 28.5106 63.8841Z" fill="black"/>
<path d="M36.3513 58.6424V59.9995H32.4267V58.6424H36.3513ZM33.3177 57.0817H35.1252V63.1547C35.1252 63.3215 35.1506 63.4515 35.2015 63.5448C35.2524 63.6353 35.3232 63.6989 35.4137 63.7357C35.507 63.7724 35.6145 63.7908 35.7361 63.7908C35.821 63.7908 35.9058 63.7838 35.9907 63.7696C36.0755 63.7527 36.1406 63.7399 36.1859 63.7314L36.4701 65.0758C36.3796 65.1041 36.2523 65.1366 36.0883 65.1734C35.9242 65.2129 35.7248 65.237 35.49 65.2454C35.0544 65.2624 34.6726 65.2045 34.3445 65.0716C34.0192 64.9387 33.766 64.7323 33.585 64.4524C33.404 64.1725 33.3149 63.8191 33.3177 63.3922V57.0817Z" fill="black"/>
<path d="M40.4286 65.2836C39.7583 65.2836 39.1813 65.1479 38.6976 64.8765C38.2167 64.6022 37.8462 64.2149 37.586 63.7145C37.3257 63.2112 37.1956 62.6161 37.1956 61.9291C37.1956 61.259 37.3257 60.6709 37.586 60.1649C37.8462 59.6588 38.2125 59.2644 38.6849 58.9816C39.1601 58.6989 39.7173 58.5576 40.3565 58.5576C40.7865 58.5576 41.1867 58.6268 41.5572 58.7654C41.9306 58.9011 42.2559 59.106 42.5331 59.3803C42.8131 59.6545 43.0309 59.9995 43.1865 60.4151C43.342 60.8278 43.4198 61.3113 43.4198 61.8655V62.3616H37.9169V61.242H41.7185C41.7185 60.9819 41.6619 60.7515 41.5487 60.5508C41.4356 60.35 41.2786 60.1931 41.0778 60.08C40.8798 59.9641 40.6493 59.9062 40.3862 59.9062C40.1119 59.9062 39.8686 59.9698 39.6565 60.097C39.4471 60.2214 39.2831 60.3896 39.1643 60.6017C39.0455 60.8109 38.9847 61.0441 38.9819 61.3014V62.3659C38.9819 62.6882 39.0413 62.9667 39.1601 63.2013C39.2817 63.436 39.4528 63.6169 39.6734 63.7442C39.8941 63.8714 40.1557 63.935 40.4583 63.935C40.6592 63.935 40.843 63.9067 41.0099 63.8502C41.1768 63.7936 41.3196 63.7088 41.4384 63.5957C41.5572 63.4826 41.6477 63.3441 41.71 63.1801L43.3816 63.2904C43.2968 63.6919 43.1228 64.0424 42.8598 64.3421C42.5995 64.639 42.2629 64.8708 41.85 65.0376C41.4398 65.2016 40.9661 65.2836 40.4286 65.2836Z" fill="black"/>
<path d="M47.5438 65.2836C46.8763 65.2836 46.3021 65.1423 45.8212 64.8595C45.3432 64.574 44.9755 64.1782 44.7181 63.6721C44.4635 63.166 44.3363 62.5836 44.3363 61.9248C44.3363 61.2576 44.465 60.6723 44.7224 60.1691C44.9826 59.663 45.3517 59.2686 45.8297 58.9859C46.3077 58.7003 46.8763 58.5576 47.5353 58.5576C48.1039 58.5576 48.6017 58.6608 49.0288 58.8671C49.4559 59.0735 49.7939 59.3633 50.0428 59.7365C50.2917 60.1097 50.4289 60.548 50.4544 61.0512H48.7488C48.7007 60.7261 48.5734 60.4645 48.3669 60.2666C48.1633 60.0659 47.896 59.9655 47.565 59.9655C47.285 59.9655 47.0403 60.0419 46.831 60.1945C46.6245 60.3444 46.4633 60.5635 46.3473 60.8519C46.2314 61.1403 46.1734 61.4894 46.1734 61.8994C46.1734 62.315 46.23 62.6684 46.3431 62.9596C46.4591 63.2508 46.6217 63.4728 46.831 63.6254C47.0403 63.7781 47.285 63.8544 47.565 63.8544C47.7715 63.8544 47.9568 63.812 48.1208 63.7272C48.2877 63.6424 48.4249 63.5194 48.5324 63.3582C48.6427 63.1943 48.7148 62.9978 48.7488 62.7688H50.4544C50.4261 63.2664 50.2903 63.7046 50.0471 64.0834C49.8066 64.4595 49.4743 64.7535 49.05 64.9655C48.6257 65.1776 48.1237 65.2836 47.5438 65.2836Z" fill="black"/>
<path d="M53.4699 65.2794C53.0541 65.2794 52.6836 65.2073 52.3583 65.0631C52.033 64.9161 51.7756 64.6998 51.5861 64.4142C51.3995 64.1259 51.3061 63.7668 51.3061 63.337C51.3061 62.9752 51.3726 62.6712 51.5055 62.4253C51.6385 62.1793 51.8195 61.9814 52.0486 61.8315C52.2777 61.6817 52.5379 61.5686 52.8293 61.4923C53.1234 61.4159 53.4318 61.3622 53.7542 61.3311C54.1332 61.2915 54.4387 61.2548 54.6707 61.2208C54.9026 61.1841 55.0709 61.1304 55.1755 61.0597C55.2802 60.989 55.3325 60.8844 55.3325 60.7459V60.7204C55.3325 60.4518 55.2477 60.244 55.078 60.097C54.9111 59.95 54.6735 59.8765 54.3652 59.8765C54.0399 59.8765 53.7811 59.9486 53.5887 60.0928C53.3964 60.2341 53.2691 60.4122 53.2069 60.6271L51.5352 60.4914C51.6201 60.0956 51.787 59.7535 52.0359 59.4651C52.2848 59.1739 52.6058 58.9505 52.999 58.795C53.395 58.6367 53.8532 58.5576 54.3737 58.5576C54.7357 58.5576 55.0822 58.6 55.4131 58.6848C55.7469 58.7696 56.0425 58.9011 56.2999 59.0792C56.5601 59.2573 56.7652 59.4863 56.9151 59.7662C57.065 60.0433 57.14 60.3755 57.14 60.7628V65.1564H55.4259V64.2531H55.375C55.2703 64.4566 55.1303 64.6362 54.9549 64.7917C54.7795 64.9443 54.5688 65.0645 54.3227 65.1521C54.0767 65.237 53.7924 65.2794 53.4699 65.2794ZM53.9876 64.0326C54.2534 64.0326 54.4882 63.9802 54.6919 63.8756C54.8955 63.7682 55.0553 63.624 55.1713 63.4431C55.2873 63.2621 55.3453 63.0571 55.3453 62.8281V62.1369C55.2887 62.1736 55.2109 62.2076 55.1119 62.2387C55.0157 62.2669 54.9068 62.2938 54.7852 62.3192C54.6636 62.3418 54.5419 62.3631 54.4203 62.3828C54.2987 62.3998 54.1884 62.4154 54.0894 62.4295C53.8772 62.4606 53.692 62.5101 53.5336 62.5779C53.3752 62.6458 53.2521 62.7377 53.1645 62.8536C53.0768 62.9667 53.0329 63.108 53.0329 63.2777C53.0329 63.5236 53.122 63.7117 53.3002 63.8417C53.4813 63.9689 53.7104 64.0326 53.9876 64.0326Z" fill="black"/>
<path d="M0 70.386V68.872H7.13638V70.386H4.47615V77.5574H2.66023V70.386H0Z" fill="#2F80ED"/>
<path d="M7.60097 77.5574V71.0434H9.35324V72.1799H9.42112C9.53992 71.7756 9.73933 71.4703 10.0194 71.2639C10.2994 71.0547 10.6218 70.9501 10.9867 70.9501C11.0772 70.9501 11.1748 70.9557 11.2795 70.967C11.3841 70.9783 11.4761 70.9939 11.5552 71.0137V72.6167C11.4704 72.5913 11.353 72.5687 11.2031 72.5489C11.0532 72.5291 10.916 72.5192 10.7915 72.5192C10.5257 72.5192 10.2881 72.5772 10.0788 72.6931C9.87227 72.8062 9.70822 72.9645 9.58659 73.1681C9.46779 73.3716 9.4084 73.6063 9.4084 73.8721V77.5574H7.60097Z" fill="#2F80ED"/>
<path d="M12.4897 77.5574V71.0434H14.2972V77.5574H12.4897ZM13.3977 70.2037C13.129 70.2037 12.8984 70.1146 12.7061 69.9365C12.5166 69.7556 12.4218 69.5393 12.4218 69.2876C12.4218 69.0388 12.5166 68.8254 12.7061 68.6473C12.8984 68.4663 13.129 68.3759 13.3977 68.3759C13.6664 68.3759 13.8955 68.4663 14.085 68.6473C14.2774 68.8254 14.3735 69.0388 14.3735 69.2876C14.3735 69.5393 14.2774 69.7556 14.085 69.9365C13.8955 70.1146 13.6664 70.2037 13.3977 70.2037Z" fill="#2F80ED"/>
<path d="M15.745 80.0001V71.0434H17.527V72.1375H17.6076C17.6868 71.9622 17.8013 71.7841 17.9513 71.6032C18.104 71.4194 18.302 71.2667 18.5453 71.1452C18.7913 71.0208 19.0968 70.9586 19.4617 70.9586C19.9369 70.9586 20.3753 71.083 20.777 71.3318C21.1786 71.5777 21.4997 71.9495 21.7401 72.4471C21.9805 72.9419 22.1007 73.5625 22.1007 74.3089C22.1007 75.0355 21.9833 75.649 21.7486 76.1494C21.5166 76.647 21.1998 77.0244 20.7982 77.2817C20.3994 77.5362 19.9524 77.6634 19.4575 77.6634C19.1067 77.6634 18.8083 77.6055 18.5622 77.4895C18.319 77.3736 18.1196 77.228 17.964 77.0527C17.8084 76.8746 17.6896 76.6951 17.6076 76.5141H17.5524V80.0001H15.745ZM17.5143 74.3004C17.5143 74.6877 17.568 75.0256 17.6755 75.314C17.783 75.6023 17.9385 75.8271 18.1422 75.9883C18.3458 76.1466 18.5933 76.2257 18.8847 76.2257C19.1788 76.2257 19.4278 76.1452 19.6314 75.984C19.8351 75.82 19.9892 75.5939 20.0939 75.3055C20.2014 75.0143 20.2551 74.6792 20.2551 74.3004C20.2551 73.9244 20.2028 73.5936 20.0981 73.308C19.9935 73.0225 19.8393 72.7991 19.6357 72.638C19.432 72.4768 19.1817 72.3962 18.8847 72.3962C18.5905 72.3962 18.3416 72.474 18.1379 72.6295C17.9371 72.785 17.783 73.0055 17.6755 73.291C17.568 73.5766 17.5143 73.913 17.5143 74.3004Z" fill="#2F80ED"/>
<path d="M25.1131 68.872V77.5574H23.3057V68.872H25.1131Z" fill="#2F80ED"/>
<path d="M29.5309 77.6846C28.8605 77.6846 28.2835 77.5489 27.7998 77.2775C27.319 77.0032 26.9485 76.6159 26.6882 76.1155C26.428 75.6122 26.2979 75.0171 26.2979 74.3301C26.2979 73.66 26.428 73.0719 26.6882 72.5659C26.9485 72.0598 27.3148 71.6654 27.7871 71.3826C28.2623 71.0999 28.8195 70.9586 29.4588 70.9586C29.8887 70.9586 30.289 71.0278 30.6595 71.1664C31.0329 71.3021 31.3581 71.507 31.6353 71.7813C31.9154 72.0555 32.1332 72.4005 32.2887 72.8161C32.4443 73.2288 32.5221 73.7123 32.5221 74.2665V74.7626H27.0192V73.643H30.8207C30.8207 73.3829 30.7641 73.1525 30.651 72.9518C30.5379 72.751 30.3809 72.5941 30.1801 72.481C29.9821 72.3651 29.7515 72.3072 29.4885 72.3072C29.2141 72.3072 28.9709 72.3708 28.7587 72.498C28.5494 72.6224 28.3854 72.7906 28.2666 73.0027C28.1478 73.2119 28.0869 73.4451 28.0841 73.7024V74.7669C28.0841 75.0892 28.1435 75.3677 28.2623 75.6023C28.3839 75.837 28.5551 76.0179 28.7757 76.1452C28.9963 76.2724 29.258 76.336 29.5606 76.336C29.7614 76.336 29.9453 76.3077 30.1122 76.2512C30.2791 76.1946 30.4219 76.1098 30.5407 75.9967C30.6595 75.8836 30.75 75.7451 30.8122 75.5811L32.4839 75.6914C32.399 76.0929 32.2251 76.4434 31.962 76.7431C31.7018 77.04 31.3652 77.2718 30.9522 77.4386C30.5421 77.6026 30.0683 77.6846 29.5309 77.6846Z" fill="#2F80ED"/>
<path fill-rule="evenodd" clip-rule="evenodd" d="M0 4.55408L18.97 11.0282V39.5685L0 33.0944V4.55408ZM2.0168 7.37254V31.6525L16.9532 36.75V12.4701L2.0168 7.37254Z" fill="black"/>
<path fill-rule="evenodd" clip-rule="evenodd" d="M9.11304 0L28.0831 6.47417V35.0144L9.11304 28.5403V0ZM11.1298 2.81847V27.0984L26.0663 32.196V7.91603L11.1298 2.81847Z" fill="black"/>
</svg>
