<svg width="107" height="24" viewBox="0 0 107 24" fill="none" xmlns="http://www.w3.org/2000/svg">
<path d="M18.4977 9.11884C16.3911 9.11884 15.2711 9.89171 15.2711 12.1317V19.3303H10.8715V4.98604H15.1104V7.70647C15.7772 6.02736 16.9776 4.96039 19.0294 4.88002C19.2432 4.88002 19.4826 4.88002 19.6963 4.90567V9.1992C19.2158 9.14619 18.8961 9.11884 18.4959 9.11884" fill="white"/>
<path d="M21.4301 19.332H25.8571V4.98604H21.4301V19.332ZM21.4301 3.52066H25.8297V0H21.4301V3.52066Z" fill="white"/>
<path d="M35.2752 16.2645C37.0346 16.2645 38.4744 14.8247 38.4744 12.159C38.4744 9.4933 37.0346 8.07922 35.2752 8.07922C33.5157 8.07922 32.1016 9.1992 32.1016 12.159C32.1016 15.1188 33.5413 16.2645 35.2752 16.2645ZM36.7149 4.66629C40.3946 4.66629 43.0347 7.46537 43.0347 12.159C43.0347 16.8527 40.3946 19.6791 36.7149 19.6791C35.1418 19.6791 33.2489 18.9849 32.3153 17.4135V24H27.9158V4.98604H32.3153V6.93189C33.2489 5.35879 35.1418 4.66629 36.7149 4.66629Z" fill="white"/>
<path d="M48.7936 0H44.394V19.332H48.7936V0Z" fill="white"/>
<path d="M60.7167 10.6116C60.6637 8.82474 59.3573 7.91849 57.7039 7.91849C56.1581 7.91849 54.744 8.71872 54.5047 10.6116H60.7167ZM57.8903 19.6774C53.2239 19.6774 50.0247 16.8236 50.0247 12.0787C50.0247 7.33371 53.5181 4.56027 57.7039 4.56027C62.4506 4.56027 65.383 8.18695 65.0906 13.279H54.4517C54.585 15.3052 56.1581 16.2662 57.7586 16.2662C59.3591 16.2662 60.4773 15.6797 60.9852 14.8264H65.0376C63.7586 18.212 60.7714 19.6791 57.892 19.6791" fill="white"/>
<path d="M87.2013 10.6116C87.1483 8.82474 85.8419 7.91849 84.1885 7.91849C82.6427 7.91849 81.2286 8.71872 80.9892 10.6116H87.2013ZM84.3748 19.6774C79.7085 19.6774 76.5093 16.8236 76.5093 12.0787C76.5093 7.33371 80.0026 4.56027 84.1885 4.56027C88.9351 4.56027 91.8676 8.18695 91.5735 13.279H80.9345C81.0679 15.3052 82.641 16.2662 84.2415 16.2662C85.8419 16.2662 86.9602 15.6797 87.468 14.8264H91.5205C90.2398 18.212 87.2543 19.6791 84.3748 19.6791" fill="white"/>
<path d="M102 4.66629C105.68 4.66629 106.826 6.82588 106.826 10.7193V19.332H102.426V11.8136C102.426 9.76004 102.346 8.08093 100.214 8.08093C98.3481 8.08093 97.5479 9.33428 97.5479 11.9743V19.3337H93.1483V4.98604H97.5479V6.87888C98.1874 5.81191 99.7605 4.66629 102 4.66629Z" fill="white"/>
<path d="M71.0684 15.6421L71.0633 8.10487H75.4441V4.98604H71.0633V1.06697H66.6637V11.4409C66.6637 13.2362 66.7903 15.6421 70.234 15.6421C70.234 16.2662 70.9351 19.6158 75.9416 19.3115V15.6421H71.0684Z" fill="white"/>
<path d="M4.40469 15.6421L4.39956 8.10487H8.78032V4.98604H4.39956V1.06697H0V11.4409C0 13.2362 0.126532 15.6421 3.57026 15.6421C3.57026 16.2662 4.27132 19.6158 9.2779 19.3115V15.6421H4.40469Z" fill="white"/>
</svg>
